#!OML:ASF E:\Style4\Style4.ASF
:FULLY-SPECIFIED
:DEGREES
1642
root 0.106233 18.1886 0.0463539 4.59785 -6.93066 4.02483
lowerback 1.98909 2.0323 3.04303
upperback -4.6252 2.97564 2.07636
thorax -5.87276 1.38588 0.24679
lowerneck 3.69887 -1.85068 -5.09744
upperneck 2.1503 -2.66239 1.15236
head 0.131592 -1.37006 1.22926
rclavicle -3.37934e-014 -3.97569e-014
rhumerus -88.4121 50.4519 -117.983
rradius 87.5864
rwrist -4.60484
rhand 2.19414 29.3727
rfingers 7.12502
rthumb 27.6902 1.39118
lclavicle -3.37934e-014 -3.97569e-014
lhumerus -28.7787 19.8274 19.6892
lradius 109.194
lwrist -14.6469
lhand -10.686 35.1232
lfingers 7.12502
lthumb 15.323 64.5355
rfemur -5.59509 11.8867 13.4584
rtibia 16.5013
rfoot -14.3328 -15.6815
rtoes -13.7662
lfemur 5.41871 -3.12749 -24.4693
ltibia 1.11319e-014
lfoot -11.5435 16.538
ltoes -11.8378
1643
root 0.10975 18.188 0.0489269 4.60354 -6.94922 3.98491
lowerback 1.94508 2.04047 3.08619
upperback -4.6055 2.98649 2.09323
thorax -5.82542 1.39048 0.241585
lowerneck 3.77456 -1.84455 -5.10892
upperneck 2.05705 -2.65909 1.12873
head 0.0899329 -1.36723 1.2254
rclavicle -1.16289e-014 -1.90833e-014
rhumerus -88.4136 50.4757 -117.961
rradius 87.6213
rwrist -4.66776
rhand 2.20543 29.3557
rfingers 7.12502
rthumb 27.701 1.37594
lclavicle -1.16289e-014 -1.90833e-014
lhumerus -28.701 19.8782 19.7006
lradius 109.165
lwrist -14.6232
lhand -10.5665 35.0811
lfingers 7.12502
lthumb 15.4381 64.4846
rfemur -5.60768 11.828 13.4866
rtibia 16.5227
rfoot -14.2398 -15.6677
rtoes -14.4779
lfemur 5.43034 -3.11194 -24.4432
ltibia 2.22639e-014
lfoot -11.5309 16.526
ltoes -11.8094
1644
root 0.113278 18.1864 0.0501103 4.58385 -6.96883 4.00481
lowerback 1.93824 2.04198 3.07835
upperback -4.57336 2.98595 2.08237
thorax -5.78722 1.39102 0.235496
lowerneck 3.73436 -1.8253 -5.12819
upperneck 2.03221 -2.6322 1.15488
head 0.0886678 -1.35353 1.23653
rclavicle 1.27222e-014 7.95139e-015
rhumerus -88.3733 50.502 -117.941
rradius 87.6291
rwrist -4.71139
rhand 2.14696 29.318
rfingers 7.12502
rthumb 27.6451 1.32927
lclavicle 1.27222e-014 7.95139e-015
lhumerus -28.6164 19.977 19.7066
lradius 109.163
lwrist -14.6609
lhand -10.5299 35.1036
lfingers 7.12502
lthumb 15.4734 64.5044
rfemur -5.60065 11.754 13.4519
rtibia 16.5476
rfoot -14.2559 -15.5867
rtoes -14.6097
lfemur 5.46307 -3.09852 -24.4798
ltibia -1.27222e-014
lfoot -11.6094 16.5753
ltoes -12.3936
1645
root 0.115145 18.1865 0.0508527 4.57591 -7.01602 4.05908
lowerback 1.95924 2.0352 2.9804
upperback -4.58067 2.9733 2.07835
thorax -5.81154 1.38876 0.285679
lowerneck 3.65518 -1.7878 -5.17246
upperneck 2.12931 -2.57931 1.20303
head 0.131308 -1.32875 1.25742
rclavicle -2.97183e-014 -3.02153e-014
rhumerus -88.4381 50.5039 -117.991
rradius 87.6374
rwrist -4.71025
rhand 2.18813 29.3446
rfingers 7.12502
rthumb 27.6845 1.36216
lclavicle -2.97183e-014 -3.02153e-014
lhumerus -28.6333 20.007 19.6418
lradius 109.2
lwrist -14.6811
lhand -10.5833 35.1975
lfingers 7.12502
lthumb 15.4219 64.6022
rfemur -5.60292 11.7656 13.3819
rtibia 16.5524
rfoot -14.2764 -15.5696
rtoes -14.4757
lfemur 5.46843 -3.06181 -24.5507
ltibia 1.43125e-014
lfoot -11.6569 16.6342
ltoes -12.8836
1646
root 0.114752 18.186 0.0518081 4.59481 -7.03068 4.05559
lowerback 1.9687 2.01333 2.8921
upperback -4.59214 2.94196 2.10336
thorax -5.83504 1.37757 0.362273
lowerneck 3.50616 -1.74351 -5.15595
upperneck 2.29835 -2.51043 1.18058
head 0.205564 -1.29628 1.24403
rclavicle -2.98177e-015 -1.59028e-014
rhumerus -88.5193 50.5134 -118.067
rradius 87.639
rwrist -4.66703
rhand 2.08165 29.3409
rfingers 7.12502
rthumb 27.5827 1.3422
lclavicle -2.98177e-015 -1.59028e-014
lhumerus -28.7258 20.0381 19.5566
lradius 109.229
lwrist -14.7019
lhand -10.6345 35.2417
lfingers 7.12502
lthumb 15.3725 64.6502
rfemur -5.63124 11.8553 13.3811
rtibia 16.5752
rfoot -14.3387 -15.6222
rtoes -14.1702
lfemur 5.44885 -3.05508 -24.548
ltibia 1.59028e-015
lfoot -11.5589 16.6717
ltoes -13.4699
1647
root 0.117092 18.1861 0.0520026 4.58117 -7.04127 4.04729
lowerback 2.00518 2.00821 2.85226
upperback -4.57601 2.93511 2.11887
thorax -5.84174 1.37638 0.399848
lowerneck 3.41351 -1.72277 -5.10412
upperneck 2.35263 -2.47489 1.10418
head 0.234919 -1.27863 1.20918
rclavicle -8.94531e-016 2.22639e-014
rhumerus -88.5322 50.5237 -118.045
rradius 87.6673
rwrist -4.64842
rhand 1.95649 29.3361
rfingers 7.12502
rthumb 27.463 1.31835
lclavicle -8.94531e-016 2.22639e-014
lhumerus -28.7306 20.0496 19.5191
lradius 109.295
lwrist -14.7112
lhand -10.6725 35.388
lfingers 7.12502
lthumb 15.336 64.7993
rfemur -5.63332 11.8474 13.3785
rtibia 16.5958
rfoot -14.3537 -15.5727
rtoes -14.0264
lfemur 5.46678 -3.04898 -24.5505
ltibia 4.77083e-015
lfoot -11.5019 16.7113
ltoes -13.7822
